<mxfile host="65bd71144e">
    <diagram id="-74YFro6Q3BAiVOVEaGo" name="Page-1">
        <mxGraphModel dx="1074" dy="787" grid="1" gridSize="10" guides="1" tooltips="1" connect="1" arrows="1" fold="1" page="1" pageScale="1" pageWidth="827" pageHeight="1169" math="0" shadow="0">
            <root>
                <mxCell id="0"/>
                <mxCell id="1" parent="0"/>
                <mxCell id="2" value="" style="shape=umlLifeline;participant=umlActor;perimeter=lifelinePerimeter;whiteSpace=wrap;html=1;container=1;collapsible=0;recursiveResize=0;verticalAlign=top;spacingTop=36;outlineConnect=0;" parent="1" vertex="1">
                    <mxGeometry x="170" y="160" width="20" height="300" as="geometry"/>
                </mxCell>
                <mxCell id="3" value="System" style="shape=umlLifeline;perimeter=lifelinePerimeter;whiteSpace=wrap;html=1;container=1;collapsible=0;recursiveResize=0;outlineConnect=0;" parent="1" vertex="1">
                    <mxGeometry x="520" y="170" width="100" height="290" as="geometry"/>
                </mxCell>
                <mxCell id="7" value="Le client envoie ses identifiants de connexion" style="html=1;verticalAlign=bottom;endArrow=block;rounded=0;labelBackgroundColor=#F4F1DE;fontColor=#393C56;" parent="1" target="3" edge="1">
                    <mxGeometry width="80" relative="1" as="geometry">
                        <mxPoint x="180" y="240" as="sourcePoint"/>
                        <mxPoint x="260" y="240" as="targetPoint"/>
                    </mxGeometry>
                </mxCell>
                <mxCell id="9" value="alt" style="shape=umlFrame;whiteSpace=wrap;html=1;" parent="1" vertex="1">
                    <mxGeometry x="160" y="260" width="430" height="180" as="geometry"/>
                </mxCell>
                <mxCell id="10" value="" style="line;strokeWidth=1;align=left;verticalAlign=middle;spacingTop=-1;spacingLeft=3;spacingRight=3;rotatable=0;labelPosition=right;points=[];portConstraint=eastwest;labelBackgroundColor=#F4F1DE;" parent="1" vertex="1">
                    <mxGeometry x="160" y="321" width="430" height="8" as="geometry"/>
                </mxCell>
                <mxCell id="11" value="[Connexion réussie]" style="text;align=center;fontStyle=1;verticalAlign=middle;spacingLeft=3;spacingRight=3;rotatable=0;points=[[0,0.5],[1,0.5]];portConstraint=eastwest;" parent="1" vertex="1">
                    <mxGeometry x="335" y="260" width="80" height="26" as="geometry"/>
                </mxCell>
                <mxCell id="12" value="Le système lui renvoie un token" style="html=1;verticalAlign=bottom;endArrow=open;dashed=1;endSize=8;rounded=0;labelBackgroundColor=#F4F1DE;fontColor=#393C56;" parent="1" edge="1">
                    <mxGeometry relative="1" as="geometry">
                        <mxPoint x="570.0900000000001" y="310" as="sourcePoint"/>
                        <mxPoint x="179.9003448275862" y="310" as="targetPoint"/>
                    </mxGeometry>
                </mxCell>
                <mxCell id="13" value="[Connexion échouée]" style="text;align=center;fontStyle=1;verticalAlign=middle;spacingLeft=3;spacingRight=3;rotatable=0;points=[[0,0.5],[1,0.5]];portConstraint=eastwest;" parent="1" vertex="1">
                    <mxGeometry x="335" y="329" width="80" height="26" as="geometry"/>
                </mxCell>
                <mxCell id="14" value="loop" style="shape=umlFrame;whiteSpace=wrap;html=1;" parent="1" vertex="1">
                    <mxGeometry x="170" y="360" width="410" height="70" as="geometry"/>
                </mxCell>
                <mxCell id="15" value="[Tant que les identifiants sont incorrects]" style="text;align=center;fontStyle=1;verticalAlign=middle;spacingLeft=3;spacingRight=3;rotatable=0;points=[[0,0.5],[1,0.5]];portConstraint=eastwest;" parent="1" vertex="1">
                    <mxGeometry x="335" y="360" width="80" height="26" as="geometry"/>
                </mxCell>
                <mxCell id="16" value="Renvoie un message d'erreur" style="html=1;verticalAlign=bottom;endArrow=open;dashed=1;endSize=8;rounded=0;labelBackgroundColor=#F4F1DE;fontColor=#393C56;" parent="1" edge="1">
                    <mxGeometry relative="1" as="geometry">
                        <mxPoint x="570.0900000000001" y="410" as="sourcePoint"/>
                        <mxPoint x="179.9003448275862" y="410" as="targetPoint"/>
                    </mxGeometry>
                </mxCell>
                <mxCell id="17" value="Client" style="shape=umlActor;verticalLabelPosition=bottom;verticalAlign=top;html=1;" parent="1" vertex="1">
                    <mxGeometry x="172.5" y="460" width="17.5" height="40" as="geometry"/>
                </mxCell>
                <mxCell id="18" value="Client" style="text;html=1;align=center;verticalAlign=middle;resizable=0;points=[];autosize=1;" parent="1" vertex="1">
                    <mxGeometry x="157.5" y="130" width="50" height="30" as="geometry"/>
                </mxCell>
                <mxCell id="6" value="System" style="html=1;" parent="1" vertex="1">
                    <mxGeometry x="520" y="460" width="100" height="40" as="geometry"/>
                </mxCell>
            </root>
        </mxGraphModel>
    </diagram>
</mxfile>